STARTFONT 2.1
FONT WH:/gn/phr/ast-xfonts/stempl.ast
SIZE 26 75 75
FONTBOUNDINGBOX 28 28 0 0
STARTPROPERTIES 3
FONT_DESCENT 0
FONT_ASCENT 28
COPYRIGHT "Public domain font.  Share and enjoy."
ENDPROPERTIES
CHARS 27
STARTCHAR C040
ENCODING 32
SWIDTH 1076 0
DWIDTH 28 0
BBX 28 28 0 0
BITMAP
00
00
00
00
00
00
00
00
00
00
00
00
00
00
00
00
00
00
00
00
00
00
00
00
00
00
00
00
ENDCHAR
STARTCHAR A
ENCODING 65
SWIDTH 1076 0
DWIDTH 28 0
BBX 28 28 0 0
BITMAP
00
00
00
00
00
00
00
00
00
00
ff
ff
ff
ff
ff
ff
ff
ff
00
00
00
00
00
00
00
00
00
00
ENDCHAR
STARTCHAR B
ENCODING 66
SWIDTH 1076 0
DWIDTH 28 0
BBX 28 28 0 0
BITMAP
18
18
18
18
18
18
18
18
18
18
ff
ff
ff
ff
ff
ff
ff
ff
00
00
00
00
00
00
00
00
00
00
ENDCHAR
STARTCHAR C
ENCODING 67
SWIDTH 1076 0
DWIDTH 28 0
BBX 28 28 0 0
BITMAP
000000
000000
000000
000000
000000
000000
000000
000000
000000
000000
ff0000
ff0000
ff0000
ffffc0
ffffc0
ff0000
ff0000
ff0000
000000
000000
000000
000000
000000
000000
000000
000000
000000
000000
ENDCHAR
STARTCHAR D
ENCODING 68
SWIDTH 1076 0
DWIDTH 28 0
BBX 28 28 0 0
BITMAP
00
00
00
00
00
00
00
00
00
00
ff
ff
ff
ff
ff
ff
ff
ff
18
18
18
18
18
18
18
18
18
18
ENDCHAR
STARTCHAR E
ENCODING 69
SWIDTH 1076 0
DWIDTH 28 0
BBX 28 28 0 0
BITMAP
000000
000000
000000
000000
000000
000000
000000
000000
000000
000000
003fc0
003fc0
003fc0
ffffc0
ffffc0
003fc0
003fc0
003fc0
000000
000000
000000
000000
000000
000000
000000
000000
000000
000000
ENDCHAR
STARTCHAR F
ENCODING 70
SWIDTH 1076 0
DWIDTH 28 0
BBX 28 28 0 0
BITMAP
000000
000000
000000
000000
000000
000000
000000
000000
000000
000000
ff0000
ff0000
ff0000
ffffc0
ffffc0
ff0000
ff0000
ff0000
180000
180000
180000
180000
180000
180000
180000
180000
180000
180000
ENDCHAR
STARTCHAR G
ENCODING 71
SWIDTH 1076 0
DWIDTH 28 0
BBX 28 28 0 0
BITMAP
18
18
18
18
18
18
18
18
18
18
ff
ff
ff
ff
ff
ff
ff
ff
18
18
18
18
18
18
18
18
18
18
ENDCHAR
STARTCHAR H
ENCODING 72
SWIDTH 1076 0
DWIDTH 28 0
BBX 28 28 0 0
BITMAP
000000
000000
000000
000000
000000
000000
000000
000000
000000
000000
003fc0
003fc0
003fc0
ffffc0
ffffc0
003fc0
003fc0
003fc0
000600
000600
000600
000600
000600
000600
000600
000600
000600
000600
ENDCHAR
STARTCHAR I
ENCODING 73
SWIDTH 1076 0
DWIDTH 28 0
BBX 28 28 0 0
BITMAP
180000
180000
180000
180000
180000
180000
180000
180000
180000
180000
ff0000
ff0000
ff0000
ffffc0
ffffc0
ff0000
ff0000
ff0000
000000
000000
000000
000000
000000
000000
000000
000000
000000
000000
ENDCHAR
STARTCHAR J
ENCODING 74
SWIDTH 1076 0
DWIDTH 28 0
BBX 28 28 0 0
BITMAP
00000000
00000000
00000000
00000000
00000000
00000000
00000000
00000000
00000000
00000000
003fc000
003fc000
003fc000
fffffff0
fffffff0
003fc000
003fc000
003fc000
00000000
00000000
00000000
00000000
00000000
00000000
00000000
00000000
00000000
00000000
ENDCHAR
STARTCHAR K
ENCODING 75
SWIDTH 1076 0
DWIDTH 28 0
BBX 28 28 0 0
BITMAP
000600
000600
000600
000600
000600
000600
000600
000600
000600
000600
003fc0
003fc0
003fc0
ffffc0
ffffc0
003fc0
003fc0
003fc0
000000
000000
000000
000000
000000
000000
000000
000000
000000
000000
ENDCHAR
STARTCHAR L
ENCODING 76
SWIDTH 1076 0
DWIDTH 28 0
BBX 28 28 0 0
BITMAP
00060000
00030000
00018000
0000c000
00006000
00003000
00001800
00000c00
00000600
00000300
003fc180
003fc0c0
003fc060
803fc030
c03fc010
603fc000
303fc000
181fe000
0c000000
06000000
03000000
01800000
00c00000
00600000
00300000
00180000
000c0000
00060000
ENDCHAR
STARTCHAR M
ENCODING 77
SWIDTH 1076 0
DWIDTH 28 0
BBX 28 28 0 0
BITMAP
00060000
000c0000
00180000
00300000
00600000
00c00000
01800000
03000000
06000000
0c000000
183fc000
303fc000
603fc000
c03fc010
803fc030
003fc060
003fc0c0
003fc180
00000300
00000600
00000c00
00001800
00003000
00006000
0000c000
00018000
00030000
00060000
ENDCHAR
STARTCHAR N
ENCODING 78
SWIDTH 1076 0
DWIDTH 28 0
BBX 28 28 0 0
BITMAP
00060000
00060000
00060000
00060000
00060000
00060000
00060000
00060000
00060000
00060000
003fc000
003fc000
003fc000
fffffff0
fffffff0
003fc000
003fc000
003fc000
00060000
00060000
00060000
00060000
00060000
00060000
00060000
00060000
00060000
00060000
ENDCHAR
STARTCHAR O
ENCODING 79
SWIDTH 1076 0
DWIDTH 28 0
BBX 28 28 0 0
BITMAP
000600
000c00
001800
003000
006000
00c000
018000
030000
060000
0c0000
183fc0
303fc0
603fc0
c03fc0
803fc0
003fc0
003fc0
003fc0
000000
000000
000000
000000
000000
000000
000000
000000
000000
000000
ENDCHAR
STARTCHAR P
ENCODING 80
SWIDTH 1076 0
DWIDTH 28 0
BBX 28 28 0 0
BITMAP
000000
000000
000000
000000
000000
000000
000000
000000
000000
000000
ff0000
ff0000
ff0000
ff0040
ff00c0
ff0180
ff0300
ff0600
000c00
001800
003000
006000
00c000
018000
030000
060000
0c0000
180000
ENDCHAR
STARTCHAR Q
ENCODING 81
SWIDTH 1076 0
DWIDTH 28 0
BBX 28 28 0 0
BITMAP
180000
0c0000
060000
030000
018000
00c000
006000
003000
001800
000c00
ff0600
ff0300
ff0180
ff00c0
ff0040
ff0000
ff0000
ff0000
000000
000000
000000
000000
000000
000000
000000
000000
000000
000000
ENDCHAR
STARTCHAR R
ENCODING 82
SWIDTH 1076 0
DWIDTH 28 0
BBX 28 28 0 0
BITMAP
000000
000000
000000
000000
000000
000000
000000
000000
000000
000000
003fc0
003fc0
003fc0
803fc0
c03fc0
603fc0
303fc0
183fc0
0c0000
060000
030000
018000
00c000
006000
003000
001800
000c00
000600
ENDCHAR
STARTCHAR S
ENCODING 83
SWIDTH 1076 0
DWIDTH 28 0
BBX 28 28 0 0
BITMAP
00000000
00000000
00000000
00000000
00000000
00000000
00000000
00000000
00000000
00000000
003fc000
003fc000
003fc000
fffffff0
fffffff0
003fc000
003fc000
003fc000
00000000
00000000
00000000
00000000
00000000
00000000
00000000
00000000
00000000
00000000
ENDCHAR
STARTCHAR T
ENCODING 84
SWIDTH 1076 0
DWIDTH 28 0
BBX 28 28 0 0
BITMAP
18
18
18
18
18
18
18
18
18
18
ff
ff
ff
ff
ff
ff
ff
ff
18
18
18
18
18
18
18
18
18
18
ENDCHAR
STARTCHAR U
ENCODING 85
SWIDTH 1076 0
DWIDTH 28 0
BBX 28 28 0 0
BITMAP
00060000
000f0000
001f8000
003fc000
007fe000
00fff000
01fff800
03fffc00
07fffe00
0fffff00
1fffff80
3fffffc0
7fffffe0
fffffff0
fffffff0
7fffffe0
3fffffc0
1fffff80
0fffff00
07fffe00
03fffc00
01fff800
00fff000
007fe000
003fc000
001f8000
000f0000
00060000
ENDCHAR
STARTCHAR V
ENCODING 86
SWIDTH 1076 0
DWIDTH 28 0
BBX 28 28 0 0
BITMAP
000600
000600
000600
000600
000600
000600
000600
000600
000600
000600
003fc0
003fc0
003fc0
ffffc0
ffffc0
003fc0
003fc0
003fc0
000600
000600
000600
000600
000600
000600
000600
000600
000600
000600
ENDCHAR
STARTCHAR W
ENCODING 87
SWIDTH 1076 0
DWIDTH 28 0
BBX 28 28 0 0
BITMAP
00000000
00000000
00000000
00000000
00000000
00000000
00000000
00000000
00000000
00000000
003fc000
003fc000
003fc000
fffffff0
fffffff0
003fc000
003fc000
003fc000
00060000
00060000
00060000
00060000
00060000
00060000
00060000
00060000
00060000
00060000
ENDCHAR
STARTCHAR X
ENCODING 88
SWIDTH 1076 0
DWIDTH 28 0
BBX 28 28 0 0
BITMAP
c0000030
60000060
300000c0
18000180
0c000300
06000600
03000c00
01801800
00c03000
00606000
0030c000
00198000
000f0000
00060000
000f0000
00198000
0030c000
00606000
00c03000
01801800
03000c00
06000600
0c000300
18000180
300000c0
60000060
c0000030
80000010
ENDCHAR
STARTCHAR Y
ENCODING 89
SWIDTH 1076 0
DWIDTH 28 0
BBX 28 28 0 0
BITMAP
00060000
00060000
00060000
00060000
00060000
00060000
00060000
00060000
00060000
00060000
003fc000
003fc000
003fc000
fffffff0
fffffff0
003fc000
003fc000
003fc000
00000000
00000000
00000000
00000000
00000000
00000000
00000000
00000000
00000000
00000000
ENDCHAR
STARTCHAR Z
ENCODING 90
SWIDTH 1076 0
DWIDTH 28 0
BBX 28 28 0 0
BITMAP
180000
180000
180000
180000
180000
180000
180000
180000
180000
180000
ff0000
ff0000
ff0000
ffffc0
ffffc0
ff0000
ff0000
ff0000
180000
180000
180000
180000
180000
180000
180000
180000
180000
180000
ENDCHAR
ENDFONT
